<?xml version="1.0" encoding="UTF-8" standalone="no"?>
<!DOCTYPE svg PUBLIC "-//W3C//DTD SVG 1.1//EN" "http://www.w3.org/Graphics/SVG/1.1/DTD/svg11.dtd">
<svg width="100%" height="100%" viewBox="0 0 1024 1024" version="1.1" xmlns="http://www.w3.org/2000/svg" xmlns:xlink="http://www.w3.org/1999/xlink" xml:space="preserve" xmlns:serif="http://www.serif.com/" style="fill-rule:evenodd;clip-rule:evenodd;stroke-linecap:round;stroke-linejoin:round;stroke-miterlimit:1.5;">
    <g id="shelly---original" serif:id="shelly - original" transform="matrix(0.710051,0,0,0.876981,161.223414,58.242567)">
        <g id="bottom" transform="matrix(1.19318,0,0,1.552975,-108.311503,-200.286078)">
            <g transform="matrix(0.128947,0.450467,0.644315,-0.073375,316.66129,472.228635)">
                <path d="M500.877,186.443C500.877,186.443 637.627,432.451 637.627,537.883C637.627,622.635 576.352,691.443 500.877,691.443C425.403,691.443 364.127,622.635 364.127,537.883C364.127,432.451 500.877,186.443 500.877,186.443Z" style="fill:url(#_Linear1);stroke:black;stroke-width:70.79px;"/>
            </g>
            <g transform="matrix(-0.128947,0.450467,-0.644315,-0.073375,693.093348,472.228622)">
                <path d="M500.877,186.443C500.877,186.443 637.627,432.451 637.627,537.883C637.627,622.635 576.352,691.443 500.877,691.443C425.403,691.443 364.127,622.635 364.127,537.883C364.127,432.451 500.877,186.443 500.877,186.443Z" style="fill:url(#_Linear2);stroke:black;stroke-width:70.79px;"/>
            </g>
        </g>
        <g id="right" transform="matrix(1.192525,0.033966,-0.059873,1.552123,-79.418955,-233.246005)">
            <g transform="matrix(0.706526,0.467216,0.923881,-0.608947,-21.256701,570.959058)">
                <path d="M500.877,186.443C500.877,186.443 637.627,466.192 637.627,586.085C637.627,644.234 576.352,691.443 500.877,691.443C425.403,691.443 364.127,644.234 364.127,586.085C364.127,466.192 500.877,186.443 500.877,186.443Z" style="fill:url(#_Linear3);stroke:black;stroke-width:42.27px;"/>
            </g>
            <g transform="matrix(0.91444,0.267198,0.583205,-0.869953,-44.683681,725.190132)">
                <path d="M500.877,186.443C500.877,186.443 637.627,475.855 637.627,599.889C637.627,650.419 576.352,691.443 500.877,691.443C425.403,691.443 364.127,650.419 364.127,599.889C364.127,475.855 500.877,186.443 500.877,186.443Z" style="fill:url(#_Linear4);stroke:black;stroke-width:39.06px;"/>
            </g>
        </g>
        <g id="left" transform="matrix(-1.192351,0.038207,0.067348,1.551896,1063.937572,-236.348759)">
            <g transform="matrix(0.706526,0.467216,0.923881,-0.608947,-21.256701,570.959058)">
                <path d="M500.877,186.443C500.877,186.443 637.627,466.156 637.627,586.033C637.627,644.211 576.352,691.443 500.877,691.443C425.403,691.443 364.127,644.211 364.127,586.033C364.127,466.156 500.877,186.443 500.877,186.443Z" style="fill:url(#_Linear5);stroke:black;stroke-width:42.27px;"/>
            </g>
            <g transform="matrix(0.91444,0.267198,0.583205,-0.869953,-44.683681,725.190132)">
                <path d="M500.877,186.443C500.877,186.443 637.627,475.829 637.627,599.852C637.627,650.402 576.352,691.443 500.877,691.443C425.403,691.443 364.127,650.402 364.127,599.852C364.127,475.829 500.877,186.443 500.877,186.443Z" style="fill:url(#_Linear6);stroke:black;stroke-width:39.07px;"/>
            </g>
            <g transform="matrix(-60.595711,1.49182,2.04867,36.270198,1334.013217,-42.494648)">
                <ellipse cx="18.299" cy="17.091" rx="4.941" ry="5.091" style="fill:none;"/>
            </g>
        </g>
        <g id="center" transform="matrix(1.19318,-0,0,-1.626368,-103.538785,1169.079499)">
            <path d="M500.877,186.443C500.877,186.443 637.627,483.082 637.627,610.213C637.627,655.045 576.352,691.443 500.877,691.443C425.403,691.443 364.127,655.045 364.127,610.213C364.127,483.082 500.877,186.443 500.877,186.443Z" style="fill:url(#_Linear7);stroke:black;stroke-width:35.52px;"/>
        </g>
    </g>
    <g id="shelly-bite" serif:id="shelly bite" transform="matrix(0.710051,0,0,0.876981,161.223414,58.242567)">
        <g transform="matrix(-0.153857,0.699564,-0.768783,-0.11395,718.673292,533.073219)">
            <g id="bottom1" serif:id="bottom">
                <path d="M505.214,194.373C528.498,237.332 637.627,443.699 637.627,537.883C637.627,622.635 576.352,691.443 500.877,691.443C425.403,691.443 364.127,622.635 364.127,537.883C364.127,453.133 452.49,277.547 487.156,211.923C493.337,206.269 499.359,200.416 505.214,194.373Z" style="fill:url(#_Linear8);stroke:black;stroke-width:70.79px;"/>
            </g>
        </g>
        <g id="right1" serif:id="right" transform="matrix(1.192525,0.033966,-0.059873,1.552123,-79.418955,-233.246005)">
            <g transform="matrix(0.706526,0.467216,0.923881,-0.608947,-21.256701,570.959058)">
                <path d="M625.932,628.752C536.481,635.871 441.172,610.304 372.166,553.728C370.529,552.386 368.915,551.033 367.325,549.671C365.262,562.914 364.127,575.163 364.127,586.085C364.127,644.234 425.403,691.443 500.877,691.443C556.644,691.443 604.66,665.669 625.932,628.752ZM499.489,189.308C500.349,189.171 501.21,189.037 502.072,188.906C501.291,187.288 500.877,186.443 500.877,186.443C500.877,186.443 500.396,187.429 499.489,189.308Z" style="fill:url(#_Linear9);stroke:black;stroke-width:42.27px;"/>
            </g>
            <g transform="matrix(0.91444,0.267198,0.583205,-0.869953,-44.683681,725.190132)">
                <path d="M632.313,549.539C599.546,546.585 566.682,539.944 535.017,529.334C474.907,509.193 428.246,477.813 398.387,441.199C378.728,501.176 364.127,559.361 364.127,599.889C364.127,650.419 425.403,691.443 500.877,691.443C576.352,691.443 637.627,650.419 637.627,599.889C637.627,585.179 635.704,568.142 632.313,549.539Z" style="fill:url(#_Linear10);stroke:black;stroke-width:39.06px;"/>
            </g>
        </g>
        <g id="left1" serif:id="left" transform="matrix(-1.192351,0.038207,0.067348,1.551896,1063.937572,-236.348759)">
            <g transform="matrix(0.706526,0.467216,0.923881,-0.608947,-21.256701,570.959058)">
                <path d="M510.536,206.714C541.708,273.126 637.627,485.636 637.627,586.033C637.627,644.211 576.352,691.443 500.877,691.443C425.403,691.443 364.127,644.211 364.127,586.033C364.127,509.807 419.419,368.955 459.686,276.484C482.919,255.716 499.871,231.985 510.536,206.714Z" style="fill:url(#_Linear11);stroke:black;stroke-width:42.27px;"/>
            </g>
            <g transform="matrix(0.91444,0.267198,0.583205,-0.869953,-44.683681,725.190132)">
                <path d="M499.035,190.382C500.234,187.805 500.877,186.443 500.877,186.443C500.877,186.443 637.627,475.829 637.627,599.852C637.627,650.402 576.352,691.443 500.877,691.443C425.403,691.443 364.127,650.402 364.127,599.852C364.127,533.917 402.778,421.244 438.983,330.163C452.647,318.904 464.507,306.361 474.17,292.617C497.129,259.963 504.763,224.697 499.035,190.382Z" style="fill:url(#_Linear12);stroke:black;stroke-width:39.07px;"/>
            </g>
        </g>
        <g id="center1" serif:id="center" transform="matrix(1.19318,-0,0,-1.626368,-103.538785,1169.079499)">
            <path d="M598.4,432.306C518.055,403.823 462.207,353.776 454.029,295.811C414.439,393.626 364.127,533.101 364.127,610.213C364.127,655.045 425.403,691.443 500.877,691.443C576.352,691.443 637.627,655.045 637.627,610.213C637.627,565.243 620.516,499.063 598.4,432.306Z" style="fill:url(#_Linear13);stroke:black;stroke-width:35.52px;"/>
        </g>
    </g>
    <g id="shelly---purple" serif:id="shelly - purple" transform="matrix(0.710051,0,0,0.876981,161.223414,58.242567)">
        <g id="bottom2" serif:id="bottom" transform="matrix(1.19318,0,0,1.552975,-108.311503,-200.286078)">
            <g transform="matrix(0.128947,0.450467,0.644315,-0.073375,316.66129,472.228635)">
                <path d="M500.877,186.443C500.877,186.443 637.627,432.451 637.627,537.883C637.627,622.635 576.352,691.443 500.877,691.443C425.403,691.443 364.127,622.635 364.127,537.883C364.127,432.451 500.877,186.443 500.877,186.443Z" style="fill:url(#_Radial14);stroke:black;stroke-width:70.79px;"/>
            </g>
            <g transform="matrix(-0.128947,0.450467,-0.644315,-0.073375,693.093348,472.228622)">
                <path d="M500.877,186.443C500.877,186.443 637.627,432.451 637.627,537.883C637.627,622.635 576.352,691.443 500.877,691.443C425.403,691.443 364.127,622.635 364.127,537.883C364.127,432.451 500.877,186.443 500.877,186.443Z" style="fill:url(#_Radial15);stroke:black;stroke-width:70.79px;"/>
            </g>
        </g>
        <g id="right2" serif:id="right" transform="matrix(1.192525,0.033966,-0.059873,1.552123,-79.418955,-233.246005)">
            <g transform="matrix(0.706526,0.467216,0.923881,-0.608947,-21.256701,570.959058)">
                <path d="M500.877,186.443C500.877,186.443 637.627,466.192 637.627,586.085C637.627,644.234 576.352,691.443 500.877,691.443C425.403,691.443 364.127,644.234 364.127,586.085C364.127,466.192 500.877,186.443 500.877,186.443Z" style="fill:url(#_Radial16);stroke:black;stroke-width:42.27px;"/>
            </g>
            <g transform="matrix(0.91444,0.267198,0.583205,-0.869953,-44.683681,725.190132)">
                <path d="M500.877,186.443C500.877,186.443 637.627,475.855 637.627,599.889C637.627,650.419 576.352,691.443 500.877,691.443C425.403,691.443 364.127,650.419 364.127,599.889C364.127,475.855 500.877,186.443 500.877,186.443Z" style="fill:url(#_Radial17);stroke:black;stroke-width:39.06px;"/>
            </g>
        </g>
        <g id="left2" serif:id="left" transform="matrix(-1.192351,0.038207,0.067348,1.551896,1063.937572,-236.348759)">
            <g transform="matrix(0.706526,0.467216,0.923881,-0.608947,-21.256701,570.959058)">
                <path d="M500.877,186.443C500.877,186.443 637.627,466.156 637.627,586.033C637.627,644.211 576.352,691.443 500.877,691.443C425.403,691.443 364.127,644.211 364.127,586.033C364.127,466.156 500.877,186.443 500.877,186.443Z" style="fill:url(#_Radial18);stroke:black;stroke-width:42.27px;"/>
            </g>
            <g transform="matrix(0.91444,0.267198,0.583205,-0.869953,-44.683681,725.190132)">
                <path d="M500.877,186.443C500.877,186.443 637.627,475.829 637.627,599.852C637.627,650.402 576.352,691.443 500.877,691.443C425.403,691.443 364.127,650.402 364.127,599.852C364.127,475.829 500.877,186.443 500.877,186.443Z" style="fill:url(#_Radial19);stroke:black;stroke-width:39.07px;"/>
            </g>
        </g>
        <g id="center2" serif:id="center" transform="matrix(1.19318,-0,0,-1.626368,-103.538785,1169.079499)">
            <path d="M500.877,186.443C500.877,186.443 637.627,483.082 637.627,610.213C637.627,655.045 576.352,691.443 500.877,691.443C425.403,691.443 364.127,655.045 364.127,610.213C364.127,483.082 500.877,186.443 500.877,186.443Z" style="fill:url(#_Radial20);stroke:black;stroke-width:35.52px;"/>
        </g>
    </g>
    <g id="shelly---brown-yellow" serif:id="shelly - brown-yellow" transform="matrix(0.710051,0,0,0.876981,161.223414,58.242567)">
        <g id="bottom3" serif:id="bottom" transform="matrix(1.19318,0,0,1.552975,-108.311503,-200.286078)">
            <g transform="matrix(0.128947,0.450467,0.644315,-0.073375,316.66129,472.228635)">
                <path d="M500.877,186.443C500.877,186.443 637.627,432.451 637.627,537.883C637.627,622.635 576.352,691.443 500.877,691.443C425.403,691.443 364.127,622.635 364.127,537.883C364.127,432.451 500.877,186.443 500.877,186.443Z" style="fill:url(#_Radial21);stroke:black;stroke-width:70.79px;"/>
            </g>
            <g transform="matrix(-0.128947,0.450467,-0.644315,-0.073375,693.093348,472.228622)">
                <path d="M500.877,186.443C500.877,186.443 637.627,432.451 637.627,537.883C637.627,622.635 576.352,691.443 500.877,691.443C425.403,691.443 364.127,622.635 364.127,537.883C364.127,432.451 500.877,186.443 500.877,186.443Z" style="fill:url(#_Radial22);stroke:black;stroke-width:70.79px;"/>
            </g>
        </g>
        <g id="right3" serif:id="right" transform="matrix(1.192525,0.033966,-0.059873,1.552123,-79.418955,-233.246005)">
            <g transform="matrix(0.706526,0.467216,0.923881,-0.608947,-21.256701,570.959058)">
                <path d="M500.877,186.443C500.877,186.443 637.627,466.192 637.627,586.085C637.627,644.234 576.352,691.443 500.877,691.443C425.403,691.443 364.127,644.234 364.127,586.085C364.127,466.192 500.877,186.443 500.877,186.443Z" style="fill:url(#_Radial23);stroke:black;stroke-width:42.27px;"/>
            </g>
            <g transform="matrix(0.91444,0.267198,0.583205,-0.869953,-44.683681,725.190132)">
                <path d="M500.877,186.443C500.877,186.443 637.627,475.855 637.627,599.889C637.627,650.419 576.352,691.443 500.877,691.443C425.403,691.443 364.127,650.419 364.127,599.889C364.127,475.855 500.877,186.443 500.877,186.443Z" style="fill:url(#_Radial24);stroke:black;stroke-width:39.06px;"/>
            </g>
        </g>
        <g id="left3" serif:id="left" transform="matrix(-1.192351,0.038207,0.067348,1.551896,1063.937572,-236.348759)">
            <g transform="matrix(0.706526,0.467216,0.923881,-0.608947,-21.256701,570.959058)">
                <path d="M500.877,186.443C500.877,186.443 637.627,466.156 637.627,586.033C637.627,644.211 576.352,691.443 500.877,691.443C425.403,691.443 364.127,644.211 364.127,586.033C364.127,466.156 500.877,186.443 500.877,186.443Z" style="fill:url(#_Radial25);stroke:black;stroke-width:42.27px;"/>
            </g>
            <g transform="matrix(0.91444,0.267198,0.583205,-0.869953,-44.683681,725.190132)">
                <path d="M500.877,186.443C500.877,186.443 637.627,475.829 637.627,599.852C637.627,650.402 576.352,691.443 500.877,691.443C425.403,691.443 364.127,650.402 364.127,599.852C364.127,475.829 500.877,186.443 500.877,186.443Z" style="fill:url(#_Radial26);stroke:black;stroke-width:39.07px;"/>
            </g>
        </g>
        <g id="center3" serif:id="center" transform="matrix(1.19318,-0,0,-1.626368,-103.538785,1169.079499)">
            <path d="M500.877,186.443C500.877,186.443 637.627,483.082 637.627,610.213C637.627,655.045 576.352,691.443 500.877,691.443C425.403,691.443 364.127,655.045 364.127,610.213C364.127,483.082 500.877,186.443 500.877,186.443Z" style="fill:url(#_Radial27);stroke:black;stroke-width:35.52px;"/>
        </g>
    </g>
    <g id="shelly---blue-green" serif:id="shelly - blue-green" transform="matrix(0.710051,0,0,0.876981,161.223414,58.242567)">
        <g id="bottom4" serif:id="bottom" transform="matrix(1.19318,0,0,1.552975,-108.311503,-200.286078)">
            <g transform="matrix(0.128947,0.450467,0.644315,-0.073375,316.66129,472.228635)">
                <path d="M500.877,186.443C500.877,186.443 637.627,432.451 637.627,537.883C637.627,622.635 576.352,691.443 500.877,691.443C425.403,691.443 364.127,622.635 364.127,537.883C364.127,432.451 500.877,186.443 500.877,186.443Z" style="fill:url(#_Radial28);stroke:black;stroke-width:70.79px;"/>
            </g>
            <g transform="matrix(-0.128947,0.450467,-0.644315,-0.073375,693.093348,472.228622)">
                <path d="M500.877,186.443C500.877,186.443 637.627,432.451 637.627,537.883C637.627,622.635 576.352,691.443 500.877,691.443C425.403,691.443 364.127,622.635 364.127,537.883C364.127,432.451 500.877,186.443 500.877,186.443Z" style="fill:url(#_Radial29);stroke:black;stroke-width:70.79px;"/>
            </g>
        </g>
        <g id="right4" serif:id="right" transform="matrix(1.192525,0.033966,-0.059873,1.552123,-79.418955,-233.246005)">
            <g transform="matrix(0.706526,0.467216,0.923881,-0.608947,-21.256701,570.959058)">
                <path d="M500.877,186.443C500.877,186.443 637.627,466.192 637.627,586.085C637.627,644.234 576.352,691.443 500.877,691.443C425.403,691.443 364.127,644.234 364.127,586.085C364.127,466.192 500.877,186.443 500.877,186.443Z" style="fill:url(#_Radial30);stroke:black;stroke-width:42.27px;"/>
            </g>
            <g transform="matrix(0.91444,0.267198,0.583205,-0.869953,-44.683681,725.190132)">
                <path d="M500.877,186.443C500.877,186.443 637.627,475.855 637.627,599.889C637.627,650.419 576.352,691.443 500.877,691.443C425.403,691.443 364.127,650.419 364.127,599.889C364.127,475.855 500.877,186.443 500.877,186.443Z" style="fill:url(#_Radial31);stroke:black;stroke-width:39.06px;"/>
            </g>
        </g>
        <g id="left4" serif:id="left" transform="matrix(-1.192351,0.038207,0.067348,1.551896,1063.937572,-236.348759)">
            <g transform="matrix(0.706526,0.467216,0.923881,-0.608947,-21.256701,570.959058)">
                <path d="M500.877,186.443C500.877,186.443 637.627,466.156 637.627,586.033C637.627,644.211 576.352,691.443 500.877,691.443C425.403,691.443 364.127,644.211 364.127,586.033C364.127,466.156 500.877,186.443 500.877,186.443Z" style="fill:url(#_Radial32);stroke:black;stroke-width:42.27px;"/>
            </g>
            <g transform="matrix(0.91444,0.267198,0.583205,-0.869953,-44.683681,725.190132)">
                <path d="M500.877,186.443C500.877,186.443 637.627,475.829 637.627,599.852C637.627,650.402 576.352,691.443 500.877,691.443C425.403,691.443 364.127,650.402 364.127,599.852C364.127,475.829 500.877,186.443 500.877,186.443Z" style="fill:url(#_Radial33);stroke:black;stroke-width:39.07px;"/>
            </g>
        </g>
        <g id="center4" serif:id="center" transform="matrix(1.19318,-0,0,-1.626368,-103.538785,1169.079499)">
            <path d="M500.877,186.443C500.877,186.443 637.627,483.082 637.627,610.213C637.627,655.045 576.352,691.443 500.877,691.443C425.403,691.443 364.127,655.045 364.127,610.213C364.127,483.082 500.877,186.443 500.877,186.443Z" style="fill:url(#_Radial34);stroke:black;stroke-width:35.52px;"/>
        </g>
    </g>
    <g id="shelly---white" serif:id="shelly - white" transform="matrix(0.710051,0,0,0.876981,161.223414,58.242567)">
        <g id="bottom5" serif:id="bottom" transform="matrix(1.19318,0,0,1.552975,-108.311503,-200.286078)">
            <g transform="matrix(0.128947,0.450467,0.644315,-0.073375,316.66129,472.228635)">
                <path d="M500.877,186.443C500.877,186.443 637.627,432.451 637.627,537.883C637.627,622.635 576.352,691.443 500.877,691.443C425.403,691.443 364.127,622.635 364.127,537.883C364.127,432.451 500.877,186.443 500.877,186.443Z" style="fill:white;stroke:black;stroke-width:70.79px;"/>
            </g>
            <g transform="matrix(-0.128947,0.450467,-0.644315,-0.073375,693.093348,472.228622)">
                <path d="M500.877,186.443C500.877,186.443 637.627,432.451 637.627,537.883C637.627,622.635 576.352,691.443 500.877,691.443C425.403,691.443 364.127,622.635 364.127,537.883C364.127,432.451 500.877,186.443 500.877,186.443Z" style="fill:white;stroke:black;stroke-width:70.79px;"/>
            </g>
        </g>
        <g id="right5" serif:id="right" transform="matrix(1.192525,0.033966,-0.059873,1.552123,-79.418955,-233.246005)">
            <g transform="matrix(0.706526,0.467216,0.923881,-0.608947,-21.256701,570.959058)">
                <path d="M500.877,186.443C500.877,186.443 637.627,466.192 637.627,586.085C637.627,644.234 576.352,691.443 500.877,691.443C425.403,691.443 364.127,644.234 364.127,586.085C364.127,466.192 500.877,186.443 500.877,186.443Z" style="fill:white;stroke:black;stroke-width:42.27px;"/>
            </g>
            <g transform="matrix(0.91444,0.267198,0.583205,-0.869953,-44.683681,725.190132)">
                <path d="M500.877,186.443C500.877,186.443 637.627,475.855 637.627,599.889C637.627,650.419 576.352,691.443 500.877,691.443C425.403,691.443 364.127,650.419 364.127,599.889C364.127,475.855 500.877,186.443 500.877,186.443Z" style="fill:white;stroke:black;stroke-width:39.06px;"/>
            </g>
        </g>
        <g id="left5" serif:id="left" transform="matrix(-1.192351,0.038207,0.067348,1.551896,1063.937572,-236.348759)">
            <g transform="matrix(0.706526,0.467216,0.923881,-0.608947,-21.256701,570.959058)">
                <path d="M500.877,186.443C500.877,186.443 637.627,466.156 637.627,586.033C637.627,644.211 576.352,691.443 500.877,691.443C425.403,691.443 364.127,644.211 364.127,586.033C364.127,466.156 500.877,186.443 500.877,186.443Z" style="fill:white;stroke:black;stroke-width:42.27px;"/>
            </g>
            <g transform="matrix(0.91444,0.267198,0.583205,-0.869953,-44.683681,725.190132)">
                <path d="M500.877,186.443C500.877,186.443 637.627,475.829 637.627,599.852C637.627,650.402 576.352,691.443 500.877,691.443C425.403,691.443 364.127,650.402 364.127,599.852C364.127,475.829 500.877,186.443 500.877,186.443Z" style="fill:white;stroke:black;stroke-width:39.07px;"/>
            </g>
        </g>
        <g id="center5" serif:id="center" transform="matrix(1.19318,-0,0,-1.626368,-103.538785,1169.079499)">
            <path d="M500.877,186.443C500.877,186.443 637.627,483.082 637.627,610.213C637.627,655.045 576.352,691.443 500.877,691.443C425.403,691.443 364.127,655.045 364.127,610.213C364.127,483.082 500.877,186.443 500.877,186.443Z" style="fill:white;stroke:black;stroke-width:35.52px;"/>
        </g>
    </g>
    <g id="shelly---white-bite" serif:id="shelly - white bite" transform="matrix(0.710051,0,0,0.876981,161.223414,58.242567)">
        <g transform="matrix(-0.153857,0.699564,-0.768783,-0.11395,718.673292,533.073219)">
            <g id="bottom6" serif:id="bottom">
                <path d="M505.214,194.373C528.498,237.332 637.627,443.699 637.627,537.883C637.627,622.635 576.352,691.443 500.877,691.443C425.403,691.443 364.127,622.635 364.127,537.883C364.127,453.133 452.49,277.547 487.156,211.923C493.337,206.269 499.359,200.416 505.214,194.373Z" style="fill:white;stroke:black;stroke-width:70.79px;"/>
            </g>
        </g>
        <g id="right6" serif:id="right" transform="matrix(1.192525,0.033966,-0.059873,1.552123,-79.418955,-233.246005)">
            <g transform="matrix(0.706526,0.467216,0.923881,-0.608947,-21.256701,570.959058)">
                <path d="M625.932,628.752C536.481,635.871 441.172,610.304 372.166,553.728C370.529,552.386 368.915,551.033 367.325,549.671C365.262,562.914 364.127,575.163 364.127,586.085C364.127,644.234 425.403,691.443 500.877,691.443C556.644,691.443 604.66,665.669 625.932,628.752ZM499.489,189.308C500.349,189.171 501.21,189.037 502.072,188.906C501.291,187.288 500.877,186.443 500.877,186.443C500.877,186.443 500.396,187.429 499.489,189.308Z" style="fill:url(#_Linear35);stroke:black;stroke-width:42.27px;"/>
            </g>
            <g transform="matrix(0.91444,0.267198,0.583205,-0.869953,-44.683681,725.190132)">
                <path d="M632.313,549.539C599.546,546.585 566.682,539.944 535.017,529.334C474.907,509.193 428.246,477.813 398.387,441.199C378.728,501.176 364.127,559.361 364.127,599.889C364.127,650.419 425.403,691.443 500.877,691.443C576.352,691.443 637.627,650.419 637.627,599.889C637.627,585.179 635.704,568.142 632.313,549.539Z" style="fill:white;stroke:black;stroke-width:39.06px;"/>
            </g>
        </g>
        <g id="left6" serif:id="left" transform="matrix(-1.192351,0.038207,0.067348,1.551896,1063.937572,-236.348759)">
            <g transform="matrix(0.706526,0.467216,0.923881,-0.608947,-21.256701,570.959058)">
                <path d="M510.536,206.714C541.708,273.126 637.627,485.636 637.627,586.033C637.627,644.211 576.352,691.443 500.877,691.443C425.403,691.443 364.127,644.211 364.127,586.033C364.127,509.807 419.419,368.955 459.686,276.484C482.919,255.716 499.871,231.985 510.536,206.714Z" style="fill:white;stroke:black;stroke-width:42.27px;"/>
            </g>
            <g transform="matrix(0.91444,0.267198,0.583205,-0.869953,-44.683681,725.190132)">
                <path d="M499.035,190.382C500.234,187.805 500.877,186.443 500.877,186.443C500.877,186.443 637.627,475.829 637.627,599.852C637.627,650.402 576.352,691.443 500.877,691.443C425.403,691.443 364.127,650.402 364.127,599.852C364.127,533.917 402.778,421.244 438.983,330.163C452.647,318.904 464.507,306.361 474.17,292.617C497.129,259.963 504.763,224.697 499.035,190.382Z" style="fill:white;stroke:black;stroke-width:39.07px;"/>
            </g>
        </g>
        <g id="center6" serif:id="center" transform="matrix(1.19318,-0,0,-1.626368,-103.538785,1169.079499)">
            <path d="M598.4,432.306C518.055,403.823 462.207,353.776 454.029,295.811C414.439,393.626 364.127,533.101 364.127,610.213C364.127,655.045 425.403,691.443 500.877,691.443C576.352,691.443 637.627,655.045 637.627,610.213C637.627,565.243 620.516,499.063 598.4,432.306Z" style="fill:white;stroke:black;stroke-width:35.52px;"/>
        </g>
    </g>
    <g id="status-overlays" serif:id="status overlays" transform="matrix(42.666667,0,0,42.666667,0,0)">
        <g transform="matrix(1.038961,0,0,1,-2.012432,-1.090909)">
            <ellipse cx="18.299" cy="17.091" rx="4.941" ry="5.091" style="fill:rgb(255,193,9);"/>
            <path d="M18.299,11.414C21.339,11.414 23.805,13.959 23.805,17.091C23.805,20.223 21.339,22.768 18.299,22.768C15.26,22.768 12.794,20.223 12.794,17.091C12.794,13.959 15.26,11.414 18.299,11.414ZM18.299,12C15.572,12 13.358,14.281 13.358,17.091C13.358,19.901 15.572,22.182 18.299,22.182C21.027,22.182 23.241,19.901 23.241,17.091C23.241,14.281 21.027,12 18.299,12Z" style="fill:white;"/>
        </g>
        <g transform="matrix(1.038961,0,0,1,-2.012432,-1.090909)">
            <ellipse cx="18.299" cy="17.091" rx="4.941" ry="5.091" style="fill:white;"/>
            <path d="M18.299,11.414C21.339,11.414 23.805,13.959 23.805,17.091C23.805,20.223 21.339,22.768 18.299,22.768C15.26,22.768 12.794,20.223 12.794,17.091C12.794,13.959 15.26,11.414 18.299,11.414ZM18.299,12C15.572,12 13.358,14.281 13.358,17.091C13.358,19.901 15.572,22.182 18.299,22.182C21.027,22.182 23.241,19.901 23.241,17.091C23.241,14.281 21.027,12 18.299,12Z"/>
        </g>
        <g transform="matrix(1.038961,0,0,1,-2.012432,-1.090909)">
            <ellipse cx="18.299" cy="17.091" rx="4.941" ry="5.091"/>
            <path d="M18.299,11.414C21.339,11.414 23.805,13.959 23.805,17.091C23.805,20.223 21.339,22.768 18.299,22.768C15.26,22.768 12.794,20.223 12.794,17.091C12.794,13.959 15.26,11.414 18.299,11.414ZM18.299,12C15.572,12 13.358,14.281 13.358,17.091C13.358,19.901 15.572,22.182 18.299,22.182C21.027,22.182 23.241,19.901 23.241,17.091C23.241,14.281 21.027,12 18.299,12Z"/>
        </g>
        <g transform="matrix(1.038961,0,0,1,-2.012432,-1.090909)">
            <ellipse cx="18.299" cy="17.091" rx="4.941" ry="5.091" style="fill:rgb(249,58,49);"/>
            <path d="M18.299,11.414C21.339,11.414 23.805,13.959 23.805,17.091C23.805,20.223 21.339,22.768 18.299,22.768C15.26,22.768 12.794,20.223 12.794,17.091C12.794,13.959 15.26,11.414 18.299,11.414ZM18.299,12C15.572,12 13.358,14.281 13.358,17.091C13.358,19.901 15.572,22.182 18.299,22.182C21.027,22.182 23.241,19.901 23.241,17.091C23.241,14.281 21.027,12 18.299,12Z" style="fill:white;"/>
        </g>
        <g transform="matrix(1.038961,0,0,1,-2.012432,-1.090909)">
            <ellipse cx="18.299" cy="17.091" rx="4.941" ry="5.091" style="fill:rgb(64,191,79);"/>
            <path d="M18.299,11.414C21.339,11.414 23.805,13.959 23.805,17.091C23.805,20.223 21.339,22.768 18.299,22.768C15.26,22.768 12.794,20.223 12.794,17.091C12.794,13.959 15.26,11.414 18.299,11.414ZM18.299,12C15.572,12 13.358,14.281 13.358,17.091C13.358,19.901 15.572,22.182 18.299,22.182C21.027,22.182 23.241,19.901 23.241,17.091C23.241,14.281 21.027,12 18.299,12Z" style="fill:white;"/>
        </g>
        <g id="White-status-icons" serif:id="White status icons">
            <g id="download-available" serif:id="download available" transform="matrix(0,1.248,-1,0,32.690522,-7.425026)">
                <path d="M16.096,16.213L16.096,15.166L19.864,15.166L18.147,13.024L18.727,12.299L21.444,15.69L18.727,19.08L18.147,18.356L19.864,16.213L16.096,16.213Z" style="fill:white;"/>
                <path d="M15.753,16.213L15.753,15.166C15.753,14.929 15.906,14.737 16.096,14.737L19.034,14.737L17.904,13.327C17.769,13.16 17.769,12.888 17.904,12.72L18.484,11.996C18.618,11.829 18.836,11.829 18.97,11.996L21.687,15.386C21.821,15.554 21.821,15.826 21.687,15.993L18.97,19.384C18.836,19.551 18.618,19.551 18.484,19.384L17.904,18.659C17.769,18.492 17.769,18.22 17.904,18.053L19.034,16.642L16.096,16.642C15.906,16.642 15.753,16.45 15.753,16.213ZM16.096,16.213L19.864,16.213L18.147,18.356L18.727,19.08L21.444,15.69L18.727,12.299L18.147,13.024L19.864,15.166L16.096,15.166L16.096,16.213Z" style="fill:white;"/>
            </g>
            <g transform="matrix(1,0,0,1,0.586394,0.069106)">
                <path d="M16.942,12.081L16.819,17.168L16.018,17.168L15.886,12.081L16.942,12.081ZM16.895,19.567L15.933,19.567L15.933,18.572L16.895,18.572L16.895,19.567Z" style="fill:white;fill-rule:nonzero;stroke:white;stroke-width:1px;stroke-linecap:butt;stroke-miterlimit:2;"/>
            </g>
            <g id="check" transform="matrix(0.187926,1.23377,-0.988598,0.150582,27.920653,-9.960174)">
                <path d="M18.939,16.919L20.189,15.691L17.314,12.173L17.895,11.449L21.444,15.69L19.656,17.686L18.939,16.919Z" style="fill:white;"/>
                <path d="M18.726,16.581L19.669,15.655L17.074,12.48C17.008,12.399 16.971,12.29 16.971,12.175C16.97,12.061 17.006,11.951 17.071,11.87L17.652,11.146C17.784,10.981 17.998,10.978 18.133,11.139L21.682,15.38C21.751,15.463 21.789,15.578 21.788,15.697C21.786,15.817 21.744,15.93 21.673,16.01L19.886,18.005C19.757,18.149 19.564,18.151 19.433,18.011L18.715,17.244C18.637,17.161 18.593,17.038 18.595,16.91C18.597,16.781 18.645,16.661 18.726,16.581ZM18.939,16.919L19.656,17.686L21.444,15.69L17.895,11.449L17.314,12.173L20.189,15.691L18.939,16.919Z" style="fill:white;"/>
            </g>
            <g id="Updating">
                <g transform="matrix(1,0,0,1,-0.185803,-0.319493)">
                    <path d="M14.743,14.993C15.214,14.128 16.132,13.54 17.186,13.54C18.24,13.54 19.157,14.128 19.629,14.993L19.621,14.993C19.15,14.132 18.236,13.547 17.186,13.547C16.136,13.547 15.221,14.132 14.751,14.993L14.743,14.993ZM19.778,17.325C19.374,18.363 18.365,19.099 17.186,19.099C16.006,19.099 14.997,18.363 14.594,17.325L14.601,17.325C15.004,18.359 16.01,19.092 17.186,19.092C18.362,19.092 19.367,18.359 19.77,17.325L19.778,17.325Z" style="fill:white;"/>
                    <path d="M19.775,17.331L19.777,17.749L20.17,17.481L20.167,17.487L20.177,17.48C19.712,18.678 18.547,19.528 17.186,19.528C15.824,19.528 14.66,18.678 14.194,17.48C14.204,17.506 14.217,17.531 14.231,17.554C14.221,17.53 14.211,17.505 14.202,17.481L14.594,17.749L14.594,17.326C14.596,17.329 14.597,17.332 14.598,17.335L14.601,17.743L14.71,17.584C15.171,18.483 16.107,19.099 17.186,19.099C18.265,19.099 19.201,18.483 19.661,17.584L19.77,17.743L19.771,17.34C19.773,17.337 19.774,17.334 19.775,17.331ZM14.594,17.325L14.595,16.896L14.598,17.325L14.594,17.325ZM14.715,17.577L14.994,17.169L14.996,17.176L15.001,17.169C15.342,18.043 16.192,18.663 17.186,18.663C18.18,18.663 19.03,18.043 19.37,17.169C19.362,17.191 19.355,17.214 19.35,17.236C19.36,17.214 19.369,17.192 19.378,17.169L19.657,17.577C19.198,18.476 18.263,19.092 17.186,19.092C16.108,19.092 15.174,18.476 14.715,17.577ZM19.771,17.325L19.773,16.896L19.775,17.325L19.771,17.325ZM19.629,15.422L19.621,15.422C19.464,15.422 19.32,15.337 19.244,15.199C18.846,14.471 18.073,13.976 17.186,13.976C16.298,13.976 15.525,14.471 15.127,15.199C15.052,15.337 14.908,15.422 14.751,15.422L14.743,15.422C14.592,15.422 14.452,15.343 14.374,15.212C14.297,15.082 14.294,14.921 14.366,14.788C14.91,13.789 15.969,13.111 17.186,13.111C18.402,13.111 19.461,13.789 20.005,14.788C20.078,14.921 20.075,15.082 19.997,15.212C19.92,15.343 19.78,15.422 19.629,15.422ZM14.743,14.993L14.751,14.993C15.221,14.132 16.136,13.547 17.186,13.547C18.236,13.547 19.15,14.132 19.621,14.993L19.629,14.993C19.157,14.128 18.24,13.54 17.186,13.54C16.132,13.54 15.214,14.128 14.743,14.993Z" style="fill:white;"/>
                </g>
                <g transform="matrix(-0.790341,-0.612668,0.612668,-0.790341,17.855057,35.212503)">
                    <path d="M15.136,13.604L16.044,15.38L14.227,15.38L15.136,13.604Z" style="fill:white;"/>
                    <path d="M15.518,13.409L16.426,15.184C16.494,15.317 16.488,15.476 16.41,15.604C16.332,15.731 16.194,15.809 16.044,15.809L14.227,15.809C14.078,15.809 13.939,15.731 13.861,15.604C13.784,15.476 13.777,15.317 13.846,15.184L14.754,13.409C14.827,13.265 14.975,13.175 15.136,13.175C15.297,13.175 15.444,13.265 15.518,13.409ZM15.136,13.604L14.227,15.38L16.044,15.38L15.136,13.604Z" style="fill:white;"/>
                </g>
                <g transform="matrix(0.674369,0.738394,-0.738394,0.674369,19.610702,-3.439297)">
                    <path d="M15.136,13.604L16.044,15.38L14.227,15.38L15.136,13.604Z" style="fill:white;"/>
                    <path d="M15.518,13.409L16.426,15.184C16.494,15.317 16.488,15.476 16.41,15.604C16.332,15.731 16.194,15.809 16.044,15.809L14.227,15.809C14.078,15.809 13.939,15.731 13.861,15.604C13.784,15.476 13.777,15.317 13.846,15.184L14.754,13.409C14.827,13.265 14.975,13.175 15.136,13.175C15.297,13.175 15.444,13.265 15.518,13.409ZM15.136,13.604L14.227,15.38L16.044,15.38L15.136,13.604Z" style="fill:white;"/>
                </g>
            </g>
        </g>
        <g id="Black-status-icons" serif:id="Black status icons">
        </g>
    </g>
    <defs>
        <linearGradient id="_Linear1" x1="0" y1="0" x2="1" y2="0" gradientUnits="userSpaceOnUse" gradientTransform="matrix(-104.546992,450.341912,401.560202,119.57789,507.884819,195.909163)"><stop offset="0" style="stop-color:rgb(87,66,222);stop-opacity:1"/><stop offset="0.48" style="stop-color:rgb(126,111,225);stop-opacity:1"/><stop offset="1" style="stop-color:rgb(235,235,235);stop-opacity:1"/></linearGradient>
        <linearGradient id="_Linear2" x1="0" y1="0" x2="1" y2="0" gradientUnits="userSpaceOnUse" gradientTransform="matrix(-103.833884,445.883527,-397.586315,-118.755546,509.661588,206.816955)"><stop offset="0" style="stop-color:rgb(87,66,222);stop-opacity:1"/><stop offset="0.48" style="stop-color:rgb(126,111,225);stop-opacity:1"/><stop offset="1" style="stop-color:rgb(235,235,235);stop-opacity:1"/></linearGradient>
        <linearGradient id="_Linear3" x1="0" y1="0" x2="1" y2="0" gradientUnits="userSpaceOnUse" gradientTransform="matrix(-6.930558,456.648806,595.210872,32.458048,504.15,190.349836)"><stop offset="0" style="stop-color:rgb(87,66,222);stop-opacity:1"/><stop offset="1" style="stop-color:rgb(235,235,235);stop-opacity:1"/></linearGradient>
        <linearGradient id="_Linear4" x1="0" y1="0" x2="1" y2="0" gradientUnits="userSpaceOnUse" gradientTransform="matrix(-11.850286,464.899129,696.457267,29.603591,506.212799,188.230732)"><stop offset="0" style="stop-color:rgb(87,66,222);stop-opacity:1"/><stop offset="1" style="stop-color:rgb(235,235,235);stop-opacity:1"/></linearGradient>
        <linearGradient id="_Linear5" x1="0" y1="0" x2="1" y2="0" gradientUnits="userSpaceOnUse" gradientTransform="matrix(-9.837818,452.247013,-589.359566,-34.424187,505.037363,196.10759)"><stop offset="0" style="stop-color:rgb(87,66,222);stop-opacity:1"/><stop offset="1" style="stop-color:rgb(235,235,235);stop-opacity:1"/></linearGradient>
        <linearGradient id="_Linear6" x1="0" y1="0" x2="1" y2="0" gradientUnits="userSpaceOnUse" gradientTransform="matrix(-16.012583,471.069228,-705.629386,-32.825743,506.599674,187.737923)"><stop offset="0" style="stop-color:rgb(87,66,222);stop-opacity:1"/><stop offset="1" style="stop-color:rgb(235,235,235);stop-opacity:1"/></linearGradient>
        <linearGradient id="_Linear7" x1="0" y1="0" x2="1" y2="0" gradientUnits="userSpaceOnUse" gradientTransform="matrix(0,462.680441,778.922819,-0,500.808568,186.443032)"><stop offset="0" style="stop-color:rgb(82,60,222);stop-opacity:1"/><stop offset="1" style="stop-color:rgb(235,235,235);stop-opacity:1"/></linearGradient>
        <linearGradient id="_Linear8" x1="0" y1="0" x2="1" y2="0" gradientUnits="userSpaceOnUse" gradientTransform="matrix(-103.833884,445.883527,-397.586315,-118.755546,509.661588,206.816955)"><stop offset="0" style="stop-color:rgb(87,66,222);stop-opacity:1"/><stop offset="0.48" style="stop-color:rgb(126,111,225);stop-opacity:1"/><stop offset="1" style="stop-color:rgb(235,235,235);stop-opacity:1"/></linearGradient>
        <linearGradient id="_Linear9" x1="0" y1="0" x2="1" y2="0" gradientUnits="userSpaceOnUse" gradientTransform="matrix(-6.930558,456.648806,595.210872,32.458048,504.15,190.349836)"><stop offset="0" style="stop-color:rgb(87,66,222);stop-opacity:1"/><stop offset="1" style="stop-color:rgb(235,235,235);stop-opacity:1"/></linearGradient>
        <linearGradient id="_Linear10" x1="0" y1="0" x2="1" y2="0" gradientUnits="userSpaceOnUse" gradientTransform="matrix(-11.850286,464.899129,696.457267,29.603591,506.212799,188.230732)"><stop offset="0" style="stop-color:rgb(87,66,222);stop-opacity:1"/><stop offset="1" style="stop-color:rgb(235,235,235);stop-opacity:1"/></linearGradient>
        <linearGradient id="_Linear11" x1="0" y1="0" x2="1" y2="0" gradientUnits="userSpaceOnUse" gradientTransform="matrix(-9.837818,452.247013,-589.359566,-34.424187,505.037363,196.10759)"><stop offset="0" style="stop-color:rgb(87,66,222);stop-opacity:1"/><stop offset="1" style="stop-color:rgb(235,235,235);stop-opacity:1"/></linearGradient>
        <linearGradient id="_Linear12" x1="0" y1="0" x2="1" y2="0" gradientUnits="userSpaceOnUse" gradientTransform="matrix(-16.012583,471.069228,-705.629386,-32.825743,506.599674,187.737923)"><stop offset="0" style="stop-color:rgb(87,66,222);stop-opacity:1"/><stop offset="1" style="stop-color:rgb(235,235,235);stop-opacity:1"/></linearGradient>
        <linearGradient id="_Linear13" x1="0" y1="0" x2="1" y2="0" gradientUnits="userSpaceOnUse" gradientTransform="matrix(0,462.680441,778.922819,-0,500.808568,186.443032)"><stop offset="0" style="stop-color:rgb(82,60,222);stop-opacity:1"/><stop offset="1" style="stop-color:rgb(235,235,235);stop-opacity:1"/></linearGradient>
        <radialGradient id="_Radial14" cx="0" cy="0" r="1" gradientUnits="userSpaceOnUse" gradientTransform="matrix(-565.017242,889.034315,794.468657,638.773378,530.340474,187.825597)"><stop offset="0" style="stop-color:rgb(87,66,222);stop-opacity:1"/><stop offset="0.5" style="stop-color:rgb(149,137,221);stop-opacity:1"/><stop offset="1" style="stop-color:rgb(189,182,231);stop-opacity:1"/></radialGradient>
        <radialGradient id="_Radial15" cx="0" cy="0" r="1" gradientUnits="userSpaceOnUse" gradientTransform="matrix(-809.823911,-613.886774,542.780032,-906.397524,529.758497,184.252536)"><stop offset="0" style="stop-color:rgb(87,66,222);stop-opacity:1"/><stop offset="0.5" style="stop-color:rgb(149,137,221);stop-opacity:1"/><stop offset="1" style="stop-color:rgb(189,182,231);stop-opacity:1"/></radialGradient>
        <radialGradient id="_Radial16" cx="0" cy="0" r="1" gradientUnits="userSpaceOnUse" gradientTransform="matrix(-12.58193,533.11052,695.140248,41.352849,527.257644,180.087721)"><stop offset="0" style="stop-color:rgb(87,66,222);stop-opacity:1"/><stop offset="0.5" style="stop-color:rgb(149,137,221);stop-opacity:1"/><stop offset="1" style="stop-color:rgb(189,182,231);stop-opacity:1"/></radialGradient>
        <radialGradient id="_Radial17" cx="0" cy="0" r="1" gradientUnits="userSpaceOnUse" gradientTransform="matrix(239.646031,453.527181,667.711952,-139.303573,503.455186,174.80715)"><stop offset="0" style="stop-color:rgb(87,66,222);stop-opacity:1"/><stop offset="0.5" style="stop-color:rgb(149,137,221);stop-opacity:1"/><stop offset="1" style="stop-color:rgb(189,182,231);stop-opacity:1"/></radialGradient>
        <radialGradient id="_Radial18" cx="0" cy="0" r="1" gradientUnits="userSpaceOnUse" gradientTransform="matrix(-695.072453,-28.764609,-3.80442,-534.068511,527.375734,179.011723)"><stop offset="0" style="stop-color:rgb(87,66,222);stop-opacity:1"/><stop offset="0.5" style="stop-color:rgb(149,137,221);stop-opacity:1"/><stop offset="1" style="stop-color:rgb(189,182,231);stop-opacity:1"/></radialGradient>
        <radialGradient id="_Radial19" cx="0" cy="0" r="1" gradientUnits="userSpaceOnUse" gradientTransform="matrix(-661.712979,149.921167,-255.377896,-450.229217,503.057938,173.868544)"><stop offset="0" style="stop-color:rgb(87,66,222);stop-opacity:1"/><stop offset="0.5" style="stop-color:rgb(149,137,221);stop-opacity:1"/><stop offset="1" style="stop-color:rgb(189,182,231);stop-opacity:1"/></radialGradient>
        <radialGradient id="_Radial20" cx="0" cy="0" r="1" gradientUnits="userSpaceOnUse" gradientTransform="matrix(499.960739,305.325417,514.015534,-296.976863,502.06593,176.09893)"><stop offset="0" style="stop-color:rgb(87,66,222);stop-opacity:1"/><stop offset="0.5" style="stop-color:rgb(149,137,221);stop-opacity:1"/><stop offset="1" style="stop-color:rgb(189,182,231);stop-opacity:1"/></radialGradient>
        <radialGradient id="_Radial21" cx="0" cy="0" r="1" gradientUnits="userSpaceOnUse" gradientTransform="matrix(-1047.744253,1687.905777,1508.244039,1184.704846,530.340474,187.825597)"><stop offset="0" style="stop-color:rgb(191,64,64);stop-opacity:1"/><stop offset="0.5" style="stop-color:rgb(230,169,26);stop-opacity:1"/><stop offset="1" style="stop-color:rgb(242,175,13);stop-opacity:1"/></radialGradient>
        <radialGradient id="_Radial22" cx="0" cy="0" r="1" gradientUnits="userSpaceOnUse" gradientTransform="matrix(-1514.107854,-1175.201231,1039.252379,-1694.536383,529.758497,184.252536)"><stop offset="0" style="stop-color:rgb(191,64,64);stop-opacity:1"/><stop offset="0.5" style="stop-color:rgb(230,169,26);stop-opacity:1"/><stop offset="1" style="stop-color:rgb(242,175,13);stop-opacity:1"/></radialGradient>
        <radialGradient id="_Radial23" cx="0" cy="0" r="1" gradientUnits="userSpaceOnUse" gradientTransform="matrix(-9.229718,1005.042234,1309.646934,66.796191,527.257644,180.087721)"><stop offset="0" style="stop-color:rgb(191,64,64);stop-opacity:1"/><stop offset="0.5" style="stop-color:rgb(230,169,26);stop-opacity:1"/><stop offset="1" style="stop-color:rgb(242,175,13);stop-opacity:1"/></radialGradient>
        <radialGradient id="_Radial24" cx="0" cy="0" r="1" gradientUnits="userSpaceOnUse" gradientTransform="matrix(465.302768,851.376378,1252.731909,-271.836551,503.455186,174.80715)"><stop offset="0" style="stop-color:rgb(191,64,64);stop-opacity:1"/><stop offset="0.5" style="stop-color:rgb(230,169,26);stop-opacity:1"/><stop offset="1" style="stop-color:rgb(242,175,13);stop-opacity:1"/></radialGradient>
        <radialGradient id="_Radial25" cx="0" cy="0" r="1" gradientUnits="userSpaceOnUse" gradientTransform="matrix(-1309.336523,-65.298895,7.302425,-1005.387176,527.375734,179.011723)"><stop offset="0" style="stop-color:rgb(191,64,64);stop-opacity:1"/><stop offset="0.5" style="stop-color:rgb(230,169,26);stop-opacity:1"/><stop offset="1" style="stop-color:rgb(242,175,13);stop-opacity:1"/></radialGradient>
        <radialGradient id="_Radial26" cx="0" cy="0" r="1" gradientUnits="userSpaceOnUse" gradientTransform="matrix(-1251.736431,273.023666,-467.262604,-851.184706,503.057938,173.868544)"><stop offset="0" style="stop-color:rgb(191,64,64);stop-opacity:1"/><stop offset="0.5" style="stop-color:rgb(230,169,26);stop-opacity:1"/><stop offset="1" style="stop-color:rgb(242,175,13);stop-opacity:1"/></radialGradient>
        <radialGradient id="_Radial27" cx="0" cy="0" r="1" gradientUnits="userSpaceOnUse" gradientTransform="matrix(952.43929,568.937408,957.80649,-565.749289,502.06593,176.09893)"><stop offset="0" style="stop-color:rgb(191,64,64);stop-opacity:1"/><stop offset="0.5" style="stop-color:rgb(230,169,26);stop-opacity:1"/><stop offset="1" style="stop-color:rgb(242,175,13);stop-opacity:1"/></radialGradient>
        <radialGradient id="_Radial28" cx="0" cy="0" r="1" gradientUnits="userSpaceOnUse" gradientTransform="matrix(-427.555491,677.250253,605.197981,483.389482,530.340474,187.825597)"><stop offset="0" style="stop-color:rgb(64,79,191);stop-opacity:1"/><stop offset="0.5" style="stop-color:rgb(64,124,191);stop-opacity:1"/><stop offset="1" style="stop-color:rgb(64,191,169);stop-opacity:1"/></radialGradient>
        <radialGradient id="_Radial29" cx="0" cy="0" r="1" gradientUnits="userSpaceOnUse" gradientTransform="matrix(-614.225639,-468.758154,414.481795,-687.458427,529.758497,184.252536)"><stop offset="0" style="stop-color:rgb(64,79,191);stop-opacity:1"/><stop offset="0.5" style="stop-color:rgb(64,124,191);stop-opacity:1"/><stop offset="1" style="stop-color:rgb(64,191,169);stop-opacity:1"/></radialGradient>
        <radialGradient id="_Radial30" cx="0" cy="0" r="1" gradientUnits="userSpaceOnUse" gradientTransform="matrix(-7.904406,405.298627,528.383497,30.158872,527.257644,180.087721)"><stop offset="0" style="stop-color:rgb(64,79,191);stop-opacity:1"/><stop offset="0.5" style="stop-color:rgb(64,124,191);stop-opacity:1"/><stop offset="1" style="stop-color:rgb(64,191,169);stop-opacity:1"/></radialGradient>
        <radialGradient id="_Radial31" cx="0" cy="0" r="1" gradientUnits="userSpaceOnUse" gradientTransform="matrix(183.740408,344.378848,506.934288,-106.962296,503.455186,174.80715)"><stop offset="0" style="stop-color:rgb(64,79,191);stop-opacity:1"/><stop offset="0.5" style="stop-color:rgb(64,124,191);stop-opacity:1"/><stop offset="1" style="stop-color:rgb(64,191,169);stop-opacity:1"/></radialGradient>
        <radialGradient id="_Radial32" cx="0" cy="0" r="1" gradientUnits="userSpaceOnUse" gradientTransform="matrix(-528.311024,-23.13741,-1.233069,-405.859454,527.375734,179.011723)"><stop offset="0" style="stop-color:rgb(64,79,191);stop-opacity:1"/><stop offset="0.5" style="stop-color:rgb(64,124,191);stop-opacity:1"/><stop offset="1" style="stop-color:rgb(64,191,169);stop-opacity:1"/></radialGradient>
        <radialGradient id="_Radial33" cx="0" cy="0" r="1" gradientUnits="userSpaceOnUse" gradientTransform="matrix(-503.555865,112.875884,-192.525479,-342.562306,503.057938,173.868544)"><stop offset="0" style="stop-color:rgb(64,79,191);stop-opacity:1"/><stop offset="0.5" style="stop-color:rgb(64,124,191);stop-opacity:1"/><stop offset="1" style="stop-color:rgb(64,191,169);stop-opacity:1"/></radialGradient>
        <radialGradient id="_Radial34" cx="0" cy="0" r="1" gradientUnits="userSpaceOnUse" gradientTransform="matrix(381.230402,231.359279,389.493494,-226.450999,502.06593,176.09893)"><stop offset="0" style="stop-color:rgb(64,79,191);stop-opacity:1"/><stop offset="0.5" style="stop-color:rgb(64,124,191);stop-opacity:1"/><stop offset="1" style="stop-color:rgb(64,191,169);stop-opacity:1"/></radialGradient>
        <linearGradient id="_Linear35" x1="0" y1="0" x2="1" y2="0" gradientUnits="userSpaceOnUse" gradientTransform="matrix(-6.930558,456.648806,595.210872,32.458048,504.15,190.349836)"><stop offset="0" style="stop-color:rgb(87,66,222);stop-opacity:1"/><stop offset="1" style="stop-color:rgb(235,235,235);stop-opacity:1"/></linearGradient>
    </defs>
</svg>
