<?xml version="1.0" encoding="UTF-8" standalone="no"?><!DOCTYPE svg PUBLIC "-//W3C//DTD SVG 1.1//EN" "http://www.w3.org/Graphics/SVG/1.1/DTD/svg11.dtd"><svg width="100%" height="100%" viewBox="0 0 1024 1024" version="1.1" xmlns="http://www.w3.org/2000/svg" xmlns:xlink="http://www.w3.org/1999/xlink" xml:space="preserve" xmlns:serif="http://www.serif.com/" style="fill-rule:evenodd;clip-rule:evenodd;stroke-linejoin:round;stroke-miterlimit:2;"><g id="status-overlays" serif:id="status overlays"><ellipse cx="725.333" cy="682.667" rx="219.037" ry="217.212"/><path d="M725.333,440.455c134.745,0 244.037,108.59 244.037,242.212c0,133.623 -109.292,242.212 -244.037,242.212c-134.745,0 -244.037,-108.59 -244.037,-242.212c0,-133.623 109.292,-242.212 244.037,-242.212Zm0,25c-120.89,0 -219.037,97.329 -219.037,217.212c0,119.883 98.147,217.212 219.037,217.212c120.89,0 219.037,-97.329 219.037,-217.212c0,-119.883 -98.147,-217.212 -219.037,-217.212Z"/><g id="White-status-icons" serif:id="White status icons"><path id="download-available" serif:id="download available" d="M703.026,540.292l44.673,0l0,200.6l91.413,-91.413l30.906,30.906l-144.656,144.656l-144.656,-144.656l30.906,-30.906l91.413,91.413l-0,-200.6Z" style="fill:#fff;"/><path d="M703.026,521.988l44.673,0c10.109,-0 18.304,8.195 18.304,18.304l-0,156.41l60.166,-60.166c7.148,-7.148 18.738,-7.148 25.886,0l30.906,30.906c7.148,7.148 7.148,18.738 -0,25.886l-144.656,144.656c-7.148,7.148 -18.738,7.148 -25.886,-0l-144.656,-144.656c-7.148,-7.148 -7.148,-18.738 -0,-25.886l30.906,-30.906c7.148,-7.148 18.738,-7.148 25.886,-0l60.166,60.166l-0,-156.41c-0,-10.109 8.195,-18.304 18.304,-18.304Zm0,18.304l0,200.6l-91.413,-91.413l-30.906,30.906l144.656,144.656l144.656,-144.656l-30.906,-30.906l-91.413,91.413l-0,-200.6l-44.673,0Z" style="fill:#fff;"/></g></g></svg>