<?xml version="1.0" encoding="UTF-8" standalone="no"?><!DOCTYPE svg PUBLIC "-//W3C//DTD SVG 1.1//EN" "http://www.w3.org/Graphics/SVG/1.1/DTD/svg11.dtd"><svg width="100%" height="100%" viewBox="0 0 1024 1024" version="1.1" xmlns="http://www.w3.org/2000/svg" xmlns:xlink="http://www.w3.org/1999/xlink" xml:space="preserve" xmlns:serif="http://www.serif.com/" style="fill-rule:evenodd;clip-rule:evenodd;stroke-linecap:round;stroke-linejoin:round;stroke-miterlimit:1.5;"><g id="shelly---original-ish" serif:id="shelly - original-ish"><g id="bottom"><path d="M509.092,814.396c0,0 149.229,59.313 206.782,48.777c46.264,-8.469 77.13,-52.938 68.885,-99.242c-8.245,-46.304 -52.5,-77.021 -98.764,-68.551c-57.553,10.536 -176.903,119.017 -176.903,119.017Z" style="fill:url(#_Linear1);stroke:#000;stroke-width:41.67px;"/><path d="M515.025,814.396c0,0 -149.229,59.313 -206.782,48.777c-46.264,-8.469 -77.13,-52.938 -68.885,-99.242c8.245,-46.304 52.5,-77.021 98.764,-68.551c57.553,10.536 176.903,119.017 176.903,119.017Z" style="fill:url(#_Linear2);stroke:#000;stroke-width:41.67px;"/></g><g id="right"><path d="M502.943,809.909c0,0 305.185,-134.336 402.081,-230.414c46.995,-46.598 49.708,-124.689 6.054,-174.277c-43.654,-49.588 -117.249,-52.014 -164.244,-5.416c-96.896,96.078 -243.891,410.106 -243.891,410.106Z" style="fill:url(#_Linear3);stroke:#000;stroke-width:41.67px;"/><path d="M517.275,817.75c0,0 257.957,-284.222 323.796,-428.943c26.822,-58.958 1.848,-130.78 -55.734,-160.286c-57.583,-29.506 -126.109,-5.595 -152.931,53.363c-65.839,144.722 -115.13,535.867 -115.13,535.867Z" style="fill:url(#_Linear4);stroke:#000;stroke-width:41.67px;"/></g><g id="left"><path d="M522.295,808.928c0,0 -305.677,-132.965 -402.934,-228.604c-47.199,-46.414 -50.235,-124.511 -6.776,-174.29c43.46,-49.779 117.064,-52.51 164.263,-6.096c97.257,95.639 245.446,408.99 245.446,408.99Z" style="fill:url(#_Linear5);stroke:#000;stroke-width:41.67px;"/><path d="M507.994,816.832c0,0 -259.05,-283.057 -325.446,-427.475c-27.063,-58.863 -2.378,-130.814 55.089,-160.573c57.467,-29.759 126.095,-6.13 153.158,52.734c66.397,144.418 117.2,535.314 117.2,535.314Z" style="fill:url(#_Linear6);stroke:#000;stroke-width:41.67px;"/><ellipse cx="725.333" cy="682.667" rx="253.846" ry="251.653" style="fill:none;"/></g><path id="center" d="M512.058,817.58c0,0 115.857,-423.095 115.857,-604.421c0,-63.943 -51.914,-115.857 -115.857,-115.857c-63.943,0 -115.857,51.914 -115.857,115.857c0,181.326 115.857,604.421 115.857,604.421Z" style="fill:url(#_Linear7);stroke:#000;stroke-width:41.67px;"/></g><defs><linearGradient id="_Linear1" x1="0" y1="0" x2="1" y2="0" gradientUnits="userSpaceOnUse" gradientTransform="matrix(234.409322,-109.143641,109.143641,234.409322,515.024684,817.749516)"><stop offset="0" style="stop-color:#5742de;stop-opacity:1"/><stop offset="0.48" style="stop-color:#7e6fe1;stop-opacity:1"/><stop offset="1" style="stop-color:#ebebeb;stop-opacity:1"/></linearGradient><linearGradient id="_Linear2" x1="0" y1="0" x2="1" y2="0" gradientUnits="userSpaceOnUse" gradientTransform="matrix(-232.053503,-108.26061,108.26061,-232.053503,502.943406,817.749516)"><stop offset="0" style="stop-color:#5742de;stop-opacity:1"/><stop offset="0.48" style="stop-color:#7e6fe1;stop-opacity:1"/><stop offset="1" style="stop-color:#ebebeb;stop-opacity:1"/></linearGradient><linearGradient id="_Linear3" x1="0" y1="0" x2="1" y2="0" gradientUnits="userSpaceOnUse" gradientTransform="matrix(365.049428,-370.49673,370.49673,365.049428,507.993726,808.928268)"><stop offset="0" style="stop-color:#5742de;stop-opacity:1"/><stop offset="1" style="stop-color:#ebebeb;stop-opacity:1"/></linearGradient><linearGradient id="_Linear4" x1="0" y1="0" x2="1" y2="0" gradientUnits="userSpaceOnUse" gradientTransform="matrix(237.734466,-547.073274,547.073274,237.734466,522.294613,817.749516)"><stop offset="0" style="stop-color:#5742de;stop-opacity:1"/><stop offset="1" style="stop-color:#ebebeb;stop-opacity:1"/></linearGradient><linearGradient id="_Linear5" x1="0" y1="0" x2="1" y2="0" gradientUnits="userSpaceOnUse" gradientTransform="matrix(-361.245844,-367.295806,367.295806,-361.245844,512.058247,803.961524)"><stop offset="0" style="stop-color:#5742de;stop-opacity:1"/><stop offset="1" style="stop-color:#ebebeb;stop-opacity:1"/></linearGradient><linearGradient id="_Linear6" x1="0" y1="0" x2="1" y2="0" gradientUnits="userSpaceOnUse" gradientTransform="matrix(-239.999827,-554.850306,554.850306,-239.999827,502.943406,817.580244)"><stop offset="0" style="stop-color:#5742de;stop-opacity:1"/><stop offset="1" style="stop-color:#ebebeb;stop-opacity:1"/></linearGradient><linearGradient id="_Linear7" x1="0" y1="0" x2="1" y2="0" gradientUnits="userSpaceOnUse" gradientTransform="matrix(0,-659.918077,659.918077,0,512,817.580244)"><stop offset="0" style="stop-color:#523cde;stop-opacity:1"/><stop offset="1" style="stop-color:#ebebeb;stop-opacity:1"/></linearGradient></defs></svg>