<?xml version="1.0" encoding="UTF-8" standalone="no"?><!DOCTYPE svg PUBLIC "-//W3C//DTD SVG 1.1//EN" "http://www.w3.org/Graphics/SVG/1.1/DTD/svg11.dtd"><svg width="100%" height="100%" viewBox="0 0 1024 1024" version="1.1" xmlns="http://www.w3.org/2000/svg" xmlns:xlink="http://www.w3.org/1999/xlink" xml:space="preserve" xmlns:serif="http://www.serif.com/" style="fill-rule:evenodd;clip-rule:evenodd;stroke-linecap:round;stroke-linejoin:round;stroke-miterlimit:1.5;"><g id="shelly---white-bite" serif:id="shelly - white bite"><g id="bottom"><path d="M510.222,816.265c-25.994,9.992 -150.567,56.32 -201.98,46.908c-46.264,-8.469 -77.13,-52.938 -68.885,-99.242c8.245,-46.304 52.5,-77.021 98.764,-68.551c46.263,8.469 132.458,80.227 164.493,108.052c2.411,4.357 4.949,8.637 7.607,12.833Z" style="fill:#fff;stroke:#000;stroke-width:41.67px;"/></g><g id="right"><path d="M932.742,537.62c-45.984,-64.476 -121.773,-106.606 -207.409,-106.606c-2.032,0 -4.058,0.024 -6.079,0.071c9.51,-11.968 18.753,-22.529 27.58,-31.282c46.995,-46.598 120.59,-44.172 164.244,5.416c32.255,36.64 39.196,88.841 21.664,132.401Zm-428.287,269.081c0.387,0.675 0.776,1.348 1.169,2.018c-1.759,0.783 -2.682,1.189 -2.682,1.189c0,0 0.518,-1.106 1.512,-3.208Z" style="fill:url(#_Linear1);stroke:#000;stroke-width:41.67px;"/><path d="M810.29,445.477c-26.567,-9.364 -55.166,-14.463 -84.957,-14.463c-56.552,0 -108.809,18.372 -151.024,49.42c16.837,-77.665 36.583,-151.263 58.096,-198.551c26.822,-58.958 95.348,-82.869 152.931,-53.363c57.583,29.506 82.557,101.328 55.734,160.286c-7.808,17.164 -18.319,36.289 -30.781,56.671Z" style="fill:#fff;stroke:#000;stroke-width:41.67px;"/></g><g id="left"><path d="M500.287,799.126c-71.83,-32.424 -299.473,-138.704 -380.926,-218.803c-47.199,-46.414 -50.235,-124.511 -6.776,-174.29c43.46,-49.779 117.064,-52.51 164.263,-6.096c61.843,60.814 144.279,209.655 196.114,309.987c3.472,31.892 12.963,62.006 27.324,89.201Z" style="fill:#fff;stroke:#000;stroke-width:41.67px;"/><path d="M507.288,811.518c0.467,3.474 0.706,5.314 0.706,5.314c0,0 -259.05,-283.057 -325.446,-427.475c-27.063,-58.863 -2.378,-130.814 55.089,-160.573c57.467,-29.759 126.095,-6.13 153.158,52.734c35.299,76.778 66.191,223.22 87.384,343.554c-4.376,18.499 -6.691,37.781 -6.691,57.594c0,47.077 13.068,91.152 35.8,128.851Z" style="fill:#fff;stroke:#000;stroke-width:41.67px;"/></g><path id="center" d="M594.681,466.908c-68.069,40.624 -115.386,112.007 -122.314,194.682c-33.541,-139.513 -76.166,-338.446 -76.166,-448.431c0,-63.943 51.914,-115.857 115.857,-115.857c63.943,0 115.857,51.914 115.857,115.857c0,64.141 -14.497,158.533 -33.234,253.749Z" style="fill:#fff;stroke:#000;stroke-width:41.67px;"/></g><g id="status-overlays" serif:id="status overlays"><ellipse cx="725.333" cy="682.667" rx="219.037" ry="217.212" style="fill:#40bf4f;"/><path d="M725.333,440.455c134.745,0 244.037,108.59 244.037,242.212c0,133.623 -109.292,242.212 -244.037,242.212c-134.745,0 -244.037,-108.59 -244.037,-242.212c0,-133.623 109.292,-242.212 244.037,-242.212Zm0,25c-120.89,0 -219.037,97.329 -219.037,217.212c0,119.883 98.147,217.212 219.037,217.212c120.89,0 219.037,-97.329 219.037,-217.212c0,-119.883 -98.147,-217.212 -219.037,-217.212Z" style="fill:#fff;"/><g id="White-status-icons" serif:id="White status icons"><g id="Updating"><path d="M621.11,626.084c20.104,-36.923 59.258,-62.004 104.224,-62.004c44.966,0 84.12,25.081 104.224,62.004l-0.331,0c-20.077,-36.757 -59.093,-61.713 -103.893,-61.713c-44.799,0 -83.815,24.956 -103.893,61.713l-0.331,0Zm214.803,99.478c-17.206,44.275 -60.253,75.692 -110.579,75.692c-50.326,0 -93.373,-31.417 -110.579,-75.692l0.312,-0c17.192,44.111 60.104,75.402 110.267,75.402c50.163,0 93.076,-31.291 110.267,-75.402l0.312,0Z" style="fill:#fff;"/><path d="M835.813,725.817l0.098,17.836l16.744,-11.445l-0.108,0.275l0.426,-0.291c-19.861,51.105 -69.55,87.366 -127.64,87.366c-58.09,0 -107.779,-36.261 -127.64,-87.366c0.43,1.107 0.961,2.155 1.579,3.135c-0.433,-1.033 -0.853,-2.073 -1.26,-3.119l16.743,11.444l0.016,-18.049c0.053,0.136 0.106,0.272 0.159,0.408l0.133,17.404l4.654,-6.802c19.65,38.361 59.588,64.641 105.617,64.641c46.028,0 85.967,-26.28 105.617,-64.641l4.652,6.799l0.052,-17.189c0.053,-0.135 0.106,-0.27 0.159,-0.405Zm-221.043,-0.256l0.016,-18.304l0.14,18.304l-0.156,0Zm5.133,10.778l11.912,-17.409l0.107,0.274l0.199,-0.291c14.533,37.289 50.807,63.744 93.213,63.744c42.406,0 78.68,-26.455 93.213,-63.744c-0.367,0.942 -0.652,1.904 -0.857,2.876c0.402,-0.946 0.789,-1.899 1.163,-2.86l11.912,17.409c-19.576,38.343 -59.458,64.623 -105.43,64.623c-45.972,0 -85.854,-26.28 -105.43,-64.623Zm215.752,-10.778l0.055,-18.304l0.101,18.304l-0.156,-0Zm-6.099,-81.174l-0.331,0c-6.694,0 -12.855,-3.655 -16.064,-9.53c-16.974,-31.075 -49.954,-52.184 -87.829,-52.184c-37.875,0 -70.855,21.108 -87.829,52.184c-3.209,5.875 -9.369,9.53 -16.064,9.53l-0.331,0c-6.458,0 -12.438,-3.403 -15.736,-8.955c-3.299,-5.552 -3.428,-12.431 -0.339,-18.102c23.204,-42.616 68.4,-71.555 120.299,-71.555c51.899,0 97.095,28.939 120.299,71.555c3.088,5.672 2.959,12.551 -0.339,18.102c-3.299,5.552 -9.278,8.955 -15.736,8.955Zm-208.447,-18.304l0.331,0c20.077,-36.757 59.093,-61.713 103.893,-61.713c44.799,0 83.815,24.956 103.893,61.713l0.331,0c-20.104,-36.923 -59.258,-62.004 -104.224,-62.004c-44.966,0 -84.12,25.081 -104.224,62.004Z" style="fill:#fff;"/><path d="M607.037,647.987l15.774,-83.617l61.271,47.497l-77.045,36.12Z" style="fill:#fff;"/><path d="M589.05,644.594l15.774,-83.617c1.182,-6.264 5.537,-11.462 11.497,-13.722c5.96,-2.26 12.667,-1.257 17.704,2.648l61.271,47.497c5.038,3.905 7.681,10.15 6.978,16.485c-0.703,6.335 -4.651,11.849 -10.423,14.554l-77.045,36.12c-6.222,2.917 -13.553,2.103 -18.984,-2.107c-5.431,-4.21 -8.046,-11.107 -6.772,-17.86Zm17.987,3.393l77.045,-36.12l-61.271,-47.497l-15.774,83.617Z" style="fill:#fff;"/><path d="M843.63,721.548l-29.794,79.706l-52.28,-57.244l82.074,-22.462Z" style="fill:#fff;"/><path d="M860.775,727.957l-29.794,79.706c-2.232,5.971 -7.409,10.35 -13.667,11.562c-6.258,1.211 -12.695,-0.92 -16.994,-5.627l-52.28,-57.244c-4.299,-4.707 -5.839,-11.311 -4.067,-17.433c1.772,-6.123 6.602,-10.883 12.75,-12.565l82.074,-22.462c6.628,-1.814 13.713,0.237 18.347,5.311c4.634,5.074 6.036,12.316 3.63,18.753Zm-17.145,-6.409l-82.074,22.462l52.28,57.244l29.794,-79.706Z" style="fill:#fff;"/></g></g></g><defs><linearGradient id="_Linear1" x1="0" y1="0" x2="1" y2="0" gradientUnits="userSpaceOnUse" gradientTransform="matrix(365.049428,-370.49673,370.49673,365.049428,507.993726,808.928268)"><stop offset="0" style="stop-color:#5742de;stop-opacity:1"/><stop offset="1" style="stop-color:#ebebeb;stop-opacity:1"/></linearGradient></defs></svg>