<?xml version="1.0" encoding="UTF-8" standalone="no"?><!DOCTYPE svg PUBLIC "-//W3C//DTD SVG 1.1//EN" "http://www.w3.org/Graphics/SVG/1.1/DTD/svg11.dtd"><svg width="100%" height="100%" viewBox="0 0 1024 1024" version="1.1" xmlns="http://www.w3.org/2000/svg" xmlns:xlink="http://www.w3.org/1999/xlink" xml:space="preserve" xmlns:serif="http://www.serif.com/" style="fill-rule:evenodd;clip-rule:evenodd;stroke-linecap:round;stroke-linejoin:round;stroke-miterlimit:1.5;"><g id="shelly---white-bite" serif:id="shelly - white bite"><g id="bottom"><path d="M510.222,816.265c-25.994,9.992 -150.567,56.32 -201.98,46.908c-46.264,-8.469 -77.13,-52.938 -68.885,-99.242c8.245,-46.304 52.5,-77.021 98.764,-68.551c46.263,8.469 132.458,80.227 164.493,108.052c2.411,4.357 4.949,8.637 7.607,12.833Z" style="fill:#fff;stroke:#000;stroke-width:41.67px;"/></g><g id="right"><path d="M932.742,537.62c-45.984,-64.476 -121.773,-106.606 -207.409,-106.606c-2.032,0 -4.058,0.024 -6.079,0.071c9.51,-11.968 18.753,-22.529 27.58,-31.282c46.995,-46.598 120.59,-44.172 164.244,5.416c32.255,36.64 39.196,88.841 21.664,132.401Zm-428.287,269.081c0.387,0.675 0.776,1.348 1.169,2.018c-1.759,0.783 -2.682,1.189 -2.682,1.189c0,0 0.518,-1.106 1.512,-3.208Z" style="fill:url(#_Linear1);stroke:#000;stroke-width:41.67px;"/><path d="M810.29,445.477c-26.567,-9.364 -55.166,-14.463 -84.957,-14.463c-56.552,0 -108.809,18.372 -151.024,49.42c16.837,-77.665 36.583,-151.263 58.096,-198.551c26.822,-58.958 95.348,-82.869 152.931,-53.363c57.583,29.506 82.557,101.328 55.734,160.286c-7.808,17.164 -18.319,36.289 -30.781,56.671Z" style="fill:#fff;stroke:#000;stroke-width:41.67px;"/></g><g id="left"><path d="M500.287,799.126c-71.83,-32.424 -299.473,-138.704 -380.926,-218.803c-47.199,-46.414 -50.235,-124.511 -6.776,-174.29c43.46,-49.779 117.064,-52.51 164.263,-6.096c61.843,60.814 144.279,209.655 196.114,309.987c3.472,31.892 12.963,62.006 27.324,89.201Z" style="fill:#fff;stroke:#000;stroke-width:41.67px;"/><path d="M507.288,811.518c0.467,3.474 0.706,5.314 0.706,5.314c0,0 -259.05,-283.057 -325.446,-427.475c-27.063,-58.863 -2.378,-130.814 55.089,-160.573c57.467,-29.759 126.095,-6.13 153.158,52.734c35.299,76.778 66.191,223.22 87.384,343.554c-4.376,18.499 -6.691,37.781 -6.691,57.594c0,47.077 13.068,91.152 35.8,128.851Z" style="fill:#fff;stroke:#000;stroke-width:41.67px;"/></g><path id="center" d="M594.681,466.908c-68.069,40.624 -115.386,112.007 -122.314,194.682c-33.541,-139.513 -76.166,-338.446 -76.166,-448.431c0,-63.943 51.914,-115.857 115.857,-115.857c63.943,0 115.857,51.914 115.857,115.857c0,64.141 -14.497,158.533 -33.234,253.749Z" style="fill:#fff;stroke:#000;stroke-width:41.67px;"/></g><g id="status-overlays" serif:id="status overlays"><ellipse cx="725.333" cy="682.667" rx="219.037" ry="217.212" style="fill:#40bf4f;"/><path d="M725.333,440.455c134.745,0 244.037,108.59 244.037,242.212c0,133.623 -109.292,242.212 -244.037,242.212c-134.745,0 -244.037,-108.59 -244.037,-242.212c0,-133.623 109.292,-242.212 244.037,-242.212Zm0,25c-120.89,0 -219.037,97.329 -219.037,217.212c0,119.883 98.147,217.212 219.037,217.212c120.89,0 219.037,-97.329 219.037,-217.212c0,-119.883 -98.147,-217.212 -219.037,-217.212Z" style="fill:#fff;"/><g id="White-status-icons" serif:id="White status icons"><path id="check" d="M629.511,680.687l61.822,57.93l125.307,-173.93l35.208,25.9l-150.426,214.073l-98.516,-81.272l26.605,-42.701Z" style="fill:#fff;"/><path d="M642.026,667.33l46.628,43.692l113.135,-157.035c2.856,-3.964 7.179,-6.622 12.005,-7.382c4.827,-0.76 9.757,0.442 13.692,3.337l35.208,25.9c8.018,5.898 9.853,17.123 4.13,25.268l-150.426,214.073c-2.932,4.173 -7.472,6.933 -12.526,7.616c-5.054,0.683 -10.164,-0.774 -14.098,-4.02l-98.516,-81.272c-7.077,-5.838 -8.739,-16.013 -3.887,-23.799l26.605,-42.701c2.897,-4.65 7.724,-7.757 13.156,-8.469c5.432,-0.712 10.897,1.046 14.895,4.792Zm-12.516,13.356l-26.605,42.701l98.516,81.272l150.426,-214.073l-35.208,-25.9l-125.307,173.93l-61.822,-57.93Z" style="fill:#fff;"/></g></g><defs><linearGradient id="_Linear1" x1="0" y1="0" x2="1" y2="0" gradientUnits="userSpaceOnUse" gradientTransform="matrix(365.049428,-370.49673,370.49673,365.049428,507.993726,808.928268)"><stop offset="0" style="stop-color:#5742de;stop-opacity:1"/><stop offset="1" style="stop-color:#ebebeb;stop-opacity:1"/></linearGradient></defs></svg>