<?xml version="1.0" encoding="UTF-8" standalone="no"?><!DOCTYPE svg PUBLIC "-//W3C//DTD SVG 1.1//EN" "http://www.w3.org/Graphics/SVG/1.1/DTD/svg11.dtd"><svg width="100%" height="100%" viewBox="0 0 1024 1024" version="1.1" xmlns="http://www.w3.org/2000/svg" xmlns:xlink="http://www.w3.org/1999/xlink" xml:space="preserve" xmlns:serif="http://www.serif.com/" style="fill-rule:evenodd;clip-rule:evenodd;stroke-linejoin:round;stroke-miterlimit:2;"><g id="status-overlays" serif:id="status overlays"><ellipse cx="725.333" cy="682.667" rx="219.037" ry="217.212" style="fill:#ffc109;"/><path d="M725.333,440.455c134.745,0 244.037,108.59 244.037,242.212c0,133.623 -109.292,242.212 -244.037,242.212c-134.745,0 -244.037,-108.59 -244.037,-242.212c0,-133.623 109.292,-242.212 244.037,-242.212Zm0,25c-120.89,0 -219.037,97.329 -219.037,217.212c0,119.883 98.147,217.212 219.037,217.212c120.89,0 219.037,-97.329 219.037,-217.212c0,-119.883 -98.147,-217.212 -219.037,-217.212Z" style="fill:#fff;"/><g id="Black-status-icons" serif:id="Black status icons"><path id="check" d="M629.511,680.687l61.822,57.93l125.307,-173.93l35.208,25.9l-150.426,214.073l-98.516,-81.272l26.605,-42.701Z"/><path d="M642.026,667.33l46.628,43.692l113.135,-157.035c2.856,-3.964 7.179,-6.622 12.005,-7.382c4.827,-0.76 9.757,0.442 13.692,3.337l35.208,25.9c8.018,5.898 9.853,17.123 4.13,25.268l-150.426,214.073c-2.932,4.173 -7.472,6.933 -12.526,7.616c-5.054,0.683 -10.164,-0.774 -14.098,-4.02l-98.516,-81.272c-7.077,-5.838 -8.739,-16.013 -3.887,-23.799l26.605,-42.701c2.897,-4.65 7.724,-7.757 13.156,-8.469c5.432,-0.712 10.897,1.046 14.895,4.792Zm-12.516,13.356l-26.605,42.701l98.516,81.272l150.426,-214.073l-35.208,-25.9l-125.307,173.93l-61.822,-57.93Z"/></g></g></svg>