<?xml version="1.0" encoding="UTF-8" standalone="no"?><!DOCTYPE svg PUBLIC "-//W3C//DTD SVG 1.1//EN" "http://www.w3.org/Graphics/SVG/1.1/DTD/svg11.dtd"><svg width="100%" height="100%" viewBox="0 0 1024 1024" version="1.1" xmlns="http://www.w3.org/2000/svg" xmlns:xlink="http://www.w3.org/1999/xlink" xml:space="preserve" xmlns:serif="http://www.serif.com/" style="fill-rule:evenodd;clip-rule:evenodd;stroke-linejoin:round;stroke-miterlimit:2;"><g id="status-overlays" serif:id="status overlays"><ellipse cx="725.333" cy="682.667" rx="219.037" ry="217.212" style="fill:#ffc109;"/><path d="M725.333,440.455c134.745,0 244.037,108.59 244.037,242.212c0,133.623 -109.292,242.212 -244.037,242.212c-134.745,0 -244.037,-108.59 -244.037,-242.212c0,-133.623 109.292,-242.212 244.037,-242.212Zm0,25c-120.89,0 -219.037,97.329 -219.037,217.212c0,119.883 98.147,217.212 219.037,217.212c120.89,0 219.037,-97.329 219.037,-217.212c0,-119.883 -98.147,-217.212 -219.037,-217.212Z" style="fill:#fff;"/><g id="Black-status-icons" serif:id="Black status icons"><g id="Updating"><path d="M621.11,626.084c20.104,-36.923 59.258,-62.004 104.224,-62.004c44.966,0 84.12,25.081 104.224,62.004l-0.331,0c-20.077,-36.757 -59.093,-61.713 -103.893,-61.713c-44.799,0 -83.815,24.956 -103.893,61.713l-0.331,0Zm214.803,99.478c-17.206,44.275 -60.253,75.692 -110.579,75.692c-50.326,0 -93.373,-31.417 -110.579,-75.692l0.312,-0c17.192,44.111 60.104,75.402 110.267,75.402c50.163,0 93.076,-31.291 110.267,-75.402l0.312,0Z"/><path d="M835.813,725.817l0.098,17.836l16.744,-11.445l-0.108,0.275l0.426,-0.291c-19.861,51.105 -69.55,87.366 -127.64,87.366c-58.09,0 -107.779,-36.261 -127.64,-87.366c0.43,1.107 0.961,2.155 1.579,3.135c-0.433,-1.033 -0.853,-2.073 -1.26,-3.119l16.743,11.444l0.016,-18.049c0.053,0.136 0.106,0.272 0.159,0.408l0.133,17.404l4.654,-6.802c19.65,38.361 59.588,64.641 105.617,64.641c46.028,0 85.967,-26.28 105.617,-64.641l4.652,6.799l0.052,-17.189c0.053,-0.135 0.106,-0.27 0.159,-0.405Zm-221.043,-0.256l0.016,-18.304l0.14,18.304l-0.156,0Zm5.133,10.778l11.912,-17.409l0.107,0.274l0.199,-0.291c14.533,37.289 50.807,63.744 93.213,63.744c42.406,0 78.68,-26.455 93.213,-63.744c-0.367,0.942 -0.652,1.904 -0.857,2.876c0.402,-0.946 0.789,-1.899 1.163,-2.86l11.912,17.409c-19.576,38.343 -59.458,64.623 -105.43,64.623c-45.972,0 -85.854,-26.28 -105.43,-64.623Zm215.752,-10.778l0.055,-18.304l0.101,18.304l-0.156,-0Zm-6.099,-81.174l-0.331,0c-6.694,0 -12.855,-3.655 -16.064,-9.53c-16.974,-31.075 -49.954,-52.184 -87.829,-52.184c-37.875,0 -70.855,21.108 -87.829,52.184c-3.209,5.875 -9.369,9.53 -16.064,9.53l-0.331,0c-6.458,0 -12.438,-3.403 -15.736,-8.955c-3.299,-5.552 -3.428,-12.431 -0.339,-18.102c23.204,-42.616 68.4,-71.555 120.299,-71.555c51.899,0 97.095,28.939 120.299,71.555c3.088,5.672 2.959,12.551 -0.339,18.102c-3.299,5.552 -9.278,8.955 -15.736,8.955Zm-208.447,-18.304l0.331,0c20.077,-36.757 59.093,-61.713 103.893,-61.713c44.799,0 83.815,24.956 103.893,61.713l0.331,0c-20.104,-36.923 -59.258,-62.004 -104.224,-62.004c-44.966,0 -84.12,25.081 -104.224,62.004Z"/><path d="M607.037,647.987l15.774,-83.617l61.271,47.497l-77.045,36.12Z"/><path d="M589.05,644.594l15.774,-83.617c1.182,-6.264 5.537,-11.462 11.497,-13.722c5.96,-2.26 12.667,-1.257 17.704,2.648l61.271,47.497c5.038,3.905 7.681,10.15 6.978,16.485c-0.703,6.335 -4.651,11.849 -10.423,14.554l-77.045,36.12c-6.222,2.917 -13.553,2.103 -18.984,-2.107c-5.431,-4.21 -8.046,-11.107 -6.772,-17.86Zm17.987,3.393l77.045,-36.12l-61.271,-47.497l-15.774,83.617Z"/><path d="M843.63,721.548l-29.794,79.706l-52.28,-57.244l82.074,-22.462Z"/><path d="M860.775,727.957l-29.794,79.706c-2.232,5.971 -7.409,10.35 -13.667,11.562c-6.258,1.211 -12.695,-0.92 -16.994,-5.627l-52.28,-57.244c-4.299,-4.707 -5.839,-11.311 -4.067,-17.433c1.772,-6.123 6.602,-10.883 12.75,-12.565l82.074,-22.462c6.628,-1.814 13.713,0.237 18.347,5.311c4.634,5.074 6.036,12.316 3.63,18.753Zm-17.145,-6.409l-82.074,22.462l52.28,57.244l29.794,-79.706Z"/></g></g></g></svg>